<svg width="26" height="30" xmlns="http://www.w3.org/2000/svg" fill="none">
 <mask height="20" width="14" y="9" x="42" maskUnits="userSpaceOnUse" mask-type="alpha" id="mask0">
  <path id="svg_1" fill="white" d="m42.9326,9.01245l12.0817,0l0,19.31095l-12.0817,0l0,-19.31095z"/>
 </mask>

 <g>
  <title>Layer 1</title>
  <path id="svg_2" fill="#83C5ED" d="m8.47489,1.4514l0.5303,9.1373l-7.76251,5.4906l0.04407,6.2597l12.95603,1.8027l8.2316,-2.3927l-3.5087,-6.581l5.0243,-2.5037l-0.0512,-7.09139l-6.9848,1.58377l-0.8687,-5.76215l-7.61039,0.05687z" clip-rule="evenodd" fill-rule="evenodd"/>
  <path id="svg_3" fill="#5999D2" d="m1.24268,1.44287l0.10094,12.74693l0.90989,-0.1421l7.5194,-5.04423l-0.73076,-1.79419l-0.20614,-4.22813l-0.21895,-1.0677l-0.24169,-0.51892l-7.13269,0.04834zm14.2171,23.46513l-0.846,-5.4252l-0.3127,-0.4578l-0.0242,-0.5701l-6.83557,0.0512l-0.51181,5.8205l8.53028,2.6585l0,-2.0771zm2.7495,-16.40497l2.4183,-1.63495l0.9768,-0.05687l2.3856,-2.31311l-0.0213,-3.10357l-7.0872,0.05118l0.4208,5.70528l0.907,1.35204zm3.2188,11.21297l1.5894,1.5823l0.4649,-0.4251l0.5076,-0.0213l-0.0583,-8.0838l-5.1466,1.0891l-0.4819,4.2324l3.1249,1.6264z" clip-rule="evenodd" fill-rule="evenodd"/>
  <path id="svg_4" fill="white" d="m11.85998,19.6838l1.9819,3.6623c0.0853,0.1564 0.2189,0.2744 0.3753,0.344l0.0526,0.4123c-0.5829,0.3768 -1.0748,0.7436 -1.4899,1.0947c-0.9512,-1.2141 -4.08034,-2.1083 -5.03999,-2.36l-0.05118,-0.0099c-0.25252,-0.0489 -0.50561,-0.0949 -0.75919,-0.1379l0.35684,-0.4848c0.11749,-0.0073 0.23176,-0.0414 0.3341,-0.0996l4.23952,-2.4211zm3.4192,3.5542l1.5283,-4.2153l4.8154,1.6094c0.1134,0.04 0.2349,0.0517 0.354,0.0341l0.853,0.6739c-1.2938,0.1905 -5.0158,0.8103 -6.9877,1.8524c-0.2175,0.1138 -0.4265,0.2275 -0.627,0.3413l-0.0184,-0.1308c0.0346,-0.0506 0.0623,-0.1056 0.0824,-0.1635l0,-0.0015zm-12.78396,-7.1468l4.98734,0.9525l-1.02363,4.2025c-0.02979,0.1251 -0.02783,0.2556 0.00569,0.3796l-0.65399,0.8843c-1.14305,-0.1706 -2.58608,-0.3454 -3.66799,-0.3369c-0.28008,0 -0.52604,0.0213 -0.7464,0.0455l0.00569,0.8928l9.10317,5.0911l1.12318,-0.0085l13.2958,-6.3308l-0.0086,-0.9341l-0.3156,0.0697l-0.4606,0.0981l-1.4772,-1.1658c0.0076,-0.1489 -0.0274,-0.2969 -0.1009,-0.4265l-2.3856,-4.1514l3.8755,-1.6435c0.1104,-0.047 0.2086,-0.1184 0.2872,-0.209l0.5232,0l-0.0071,-1.0009l-0.4976,0c-0.081,-0.0987 -0.1843,-0.1766 -0.3014,-0.2274l-3.55,-1.5284l3.2614,-4.13142c0.0871,-0.11438 0.1408,-0.25072 0.155,-0.39381l0.8814,-0.51039l-0.0057,-0.90989l-0.0028,-0.24169l-1.4374,0.83027c-0.1295,-0.03813 -0.2668,-0.04157 -0.398,-0.00995l-5.1551,1.35773l-0.3597,-4.23667c-0.0104,-0.11635 -0.0463,-0.22898 -0.1052,-0.32983l0.172,-0.61987l-1.0492,0.00711l-0.074,0.27439c-0.1366,0.04893 -0.2571,0.13451 -0.3483,0.24738l-2.8619,3.58268l-3.73195,-3.33673c-0.08144,-0.07132 -0.17612,-0.12591 -0.27865,-0.16065l-0.34121,-0.55304l-1.17859,0.00995l0.57152,0.9241c-0.06886,0.12902 -0.09944,0.27502 -0.08814,0.42083l0.32272,4.24093l-5.20059,-0.6682c-0.14014,-0.01456 -0.28161,0.00902 -0.40945,0.06824l-1.56815,-0.60564l0.00711,1.07765l1.12599,0.43361c0.0327,0.12796 0.09668,0.24596 0.19193,0.34548l3.81017,3.85853l-4.22246,2.9671c-0.11989,0.0841 -0.21354,0.2004 -0.27012,0.3355l-0.57437,0.1805l0.00711,1.045l0.86155,-0.2673c0.0853,0.0554 0.17913,0.0953 0.28292,0.1137l0,0.0015z" clip-rule="evenodd" fill-rule="evenodd"/>
  <path id="svg_5" fill="#FFD206" d="m19.28868,10.4451c0.1208,0.219 0.3426,0.2389 0.4947,0.037l2.9558,-3.877c0.1237,-0.1635 0.0639,-0.25591 -0.1365,-0.19762l-4.7769,1.31792c-0.2417,0.06824 -0.3086,0.27723 -0.1422,0.46774l1.6065,2.25196l-0.0014,0zm-12.06317,2.1724c-0.00711,-0.2446 -0.17772,-0.3313 -0.38102,-0.1905l-3.8315,2.6401c-0.2033,0.1393 -0.1706,0.29 0.07109,0.3326l4.74849,0.8573c0.24311,0.0427 0.35543,-0.1009 0.25022,-0.3227c0,0 -0.83738,-1.78 -0.84449,-2.8249l-0.01279,-0.4919zm12.02477,1.743c-0.0753,0.2331 0.0526,0.3497 0.2815,0.2601l3.7917,-1.47c0.2303,-0.0896 0.2303,-0.2374 0.0028,-0.3256l-3.5684,-1.4003c-0.2275,-0.091 -0.3725,0.0312 -0.3214,0.2701c0,0 0.1053,0.4862 0.1095,0.9724c0.0071,0.7464 -0.2957,1.6919 -0.2957,1.6919l0,0.0014zm-10.50355,-6.02235c0.11374,-0.2161 0.00711,-0.41513 -0.23743,-0.44073l-4.82242,-0.51181c-0.24453,-0.02559 -0.30424,0.09952 -0.13506,0.27581l3.28982,3.37228c0.17061,0.1763 0.38244,0.1322 0.46775,-0.0967l1.43734,-2.59885zm7.94595,-5.3328c-0.0185,-0.24453 -0.1493,-0.28007 -0.2901,-0.07819l-2.5534,3.62249c-0.1421,0.19904 -0.0568,0.39239 0.1877,0.42793l2.616,0.75351c0.2317,0.0853 0.4051,-0.0455 0.3852,-0.28719l-0.3454,-4.43855zm-7.86349,13.85585c-0.19193,-0.1521 -0.39808,-0.0853 -0.45921,0.1507l-1.03074,3.9851c-0.06113,0.236 0.06113,0.3298 0.27723,0.2075l3.78321,-2.1524c0.2118,-0.1237 0.2104,-0.3199 -0.0043,-0.4365l-2.56619,-1.7544zm3.98219,1.7885c-0.2417,-0.0469 -0.3512,0.0939 -0.2445,0.3128l1.7743,3.6126c0.1094,0.2189 0.2616,0.2104 0.3412,-0.0214l1.3193,-3.8314c0.0796,-0.2332 -0.0512,-0.3697 -0.2886,-0.31c0,0 -1.3847,0.3498 -2.3984,0.2915c-0.3242,-0.0185 -0.5033,-0.0541 -0.5033,-0.0541zm-3.56705,-15.44104c-0.17914,-0.16919 -0.30851,-0.10379 -0.28434,0.1379l0.40518,4.15137c0.02275,0.24453 0.22463,0.36111 0.44784,0.25732l2.67707,-1.03215c0.2403,-0.05829 0.2872,-0.24453 0.108,-0.41087l-3.35518,-3.10357l0.00143,0zm7.87485,14.69614c-0.1891,0.1535 -0.155,0.344 0.0796,0.4236l4.2509,1.4189c0.2331,0.0796 0.327,-0.0284 0.2033,-0.2417l-2.134,-3.7177c-0.1223,-0.2105 -0.3341,-0.2204 -0.4748,-0.0185l-1.925,2.1354z" clip-rule="evenodd" fill-rule="evenodd"/>
  <path id="svg_6" fill="#E8580D" d="m12.16158,25.7628c-0.7251,-1.089 -4.47271,-2.0757 -4.63479,-2.1183c-0.0327,-0.0071 -3.40071,-0.654 -5.37688,-0.6384c-0.29714,0 -0.55163,0.0185 -0.75635,0.0484l0.00711,0.0099l0.03981,5.1992l9.15009,-0.0626l0.75491,-1.0734c0.2118,-0.3227 0.8104,-1.288 0.8161,-1.298l0.0241,-0.0341l-0.0241,-0.0341l0,0.0014z" clip-rule="evenodd" fill-rule="evenodd"/>
  <path id="svg_7" fill="#498070" d="m24.92298,21.7832l-0.1465,0.0284c-0.2701,0.0583 -0.7279,0.1564 -1.389,0.2929c-0.199,0.0242 -4.929,0.6497 -7.1511,1.8255c-3.5557,1.861 -4.4997,3.5585 -4.74,4.2025l-0.0555,0.0626l13.5418,-0.0981l-0.0597,-6.3124l0,-0.0014z" clip-rule="evenodd" fill-rule="evenodd"/>
  <path id="svg_8" fill="white" d="m19.40478,12.8694c0.0256,3.358 -2.7268,6.0991 -6.1446,6.1247c-3.41778,0.0255 -6.21143,-2.6757 -6.2356,-6.0337c-0.02417,-3.3581 2.72541,-6.09914 6.146,-6.12331c3.4178,-0.02559 6.21,2.67422 6.2342,6.03231z" clip-rule="evenodd" fill-rule="evenodd"/>
  <path id="svg_9" fill="#FFD206" d="m9.17718,9.5441l-0.62698,0.8203l-0.26301,0.4877l-0.05118,0.8743l-0.23601,0.3697l0.10237,0.9212l-0.08673,1.0677l0.67105,0.9611l0.19477,0.8814l0.6284,0.6924l1.19423,0.6341l0.85869,0.5075l1.8056,0.3071l1.2852,-0.0071c0.2389,-0.0028 1.2312,-0.3554 1.2312,-0.3554l0.8573,-0.5843l1.1118,-0.8772l0.6866,-1.2924l0.128,-1.3634l-0.0128,-1.3875l-0.3,-1.5696l-0.5246,-0.6184l-1.099,-0.80046l-0.3966,-0.59427l-1.2767,-0.36537l-0.9071,-0.32131l-0.7165,-0.18482l-1.7089,0.34121l-1.25535,0.41656l-0.79047,0.55446l-0.22321,0.38955l-0.28007,0.09525z" clip-rule="evenodd" fill-rule="evenodd"/>
 </g>
</svg>