<svg width="174" height="59" xmlns="http://www.w3.org/2000/svg" fill="none">

 <mask height="20" width="14" y="9" x="42" maskUnits="userSpaceOnUse" mask-type="alpha" id="mask0">
  <path id="svg_1" fill="white" d="m42.9326,9.01245l12.0817,0l0,19.31095l-12.0817,0l0,-19.31095z"/>
 </mask>
 <g>
  <title>Layer 1</title>
  <path id="svg_2" fill="#83C5ED" d="m7.23221,1.4514l0.5303,9.1373l-7.76251,5.4906l0.04407,6.2597l12.95603,1.8027l8.2316,-2.3927l-3.5087,-6.581l5.0243,-2.5037l-0.0512,-7.09139l-6.9848,1.58377l-0.8687,-5.76215l-7.61039,0.05687z" clip-rule="evenodd" fill-rule="evenodd"/>
  <path id="svg_3" fill="#5999D2" d="m0,1.44287l0.10094,12.74693l0.90989,-0.1421l7.5194,-5.04423l-0.73076,-1.79419l-0.20614,-4.22813l-0.21895,-1.0677l-0.24169,-0.51892l-7.13269,0.04834zm14.2171,23.46513l-0.846,-5.4252l-0.3127,-0.4578l-0.0242,-0.5701l-6.83557,0.0512l-0.51181,5.8205l8.53028,2.6585l0,-2.0771zm2.7495,-16.40497l2.4183,-1.63495l0.9768,-0.05687l2.3856,-2.31311l-0.0213,-3.10357l-7.0872,0.05118l0.4208,5.70528l0.907,1.35204zm3.2188,11.21297l1.5894,1.5823l0.4649,-0.4251l0.5076,-0.0213l-0.0583,-8.0838l-5.1466,1.0891l-0.4819,4.2324l3.1249,1.6264z" clip-rule="evenodd" fill-rule="evenodd"/>
  <path id="svg_4" fill="white" d="m10.6173,19.6838l1.9819,3.6623c0.0853,0.1564 0.2189,0.2744 0.3753,0.344l0.0526,0.4123c-0.5829,0.3768 -1.0748,0.7436 -1.4899,1.0947c-0.9512,-1.2141 -4.08034,-2.1083 -5.03999,-2.36l-0.05118,-0.0099c-0.25252,-0.0489 -0.50561,-0.0949 -0.75919,-0.1379l0.35684,-0.4848c0.11749,-0.0073 0.23176,-0.0414 0.3341,-0.0996l4.23952,-2.4211zm3.4192,3.5542l1.5283,-4.2153l4.8154,1.6094c0.1134,0.04 0.2349,0.0517 0.354,0.0341l0.853,0.6739c-1.2938,0.1905 -5.0158,0.8103 -6.9877,1.8524c-0.2175,0.1138 -0.4265,0.2275 -0.627,0.3413l-0.0184,-0.1308c0.0346,-0.0506 0.0623,-0.1056 0.0824,-0.1635l0,-0.0015zm-12.78396,-7.1468l4.98734,0.9525l-1.02363,4.2025c-0.02979,0.1251 -0.02783,0.2556 0.00569,0.3796l-0.65399,0.8843c-1.14305,-0.1706 -2.58608,-0.3454 -3.66799,-0.3369c-0.28008,0 -0.52604,0.0213 -0.7464,0.0455l0.00569,0.8928l9.10317,5.0911l1.12318,-0.0085l13.2958,-6.3308l-0.0086,-0.9341l-0.3156,0.0697l-0.4606,0.0981l-1.4772,-1.1658c0.0076,-0.1489 -0.0274,-0.2969 -0.1009,-0.4265l-2.3856,-4.1514l3.8755,-1.6435c0.1104,-0.047 0.2086,-0.1184 0.2872,-0.209l0.5232,0l-0.0071,-1.0009l-0.4976,0c-0.081,-0.0987 -0.1843,-0.1766 -0.3014,-0.2274l-3.55,-1.5284l3.2614,-4.13142c0.0871,-0.11438 0.1408,-0.25072 0.155,-0.39381l0.8814,-0.51039l-0.0057,-0.90989l-0.0028,-0.24169l-1.4374,0.83027c-0.1295,-0.03813 -0.2668,-0.04157 -0.398,-0.00995l-5.1551,1.35773l-0.3597,-4.23667c-0.0104,-0.11635 -0.0463,-0.22898 -0.1052,-0.32983l0.172,-0.61987l-1.0492,0.00711l-0.074,0.27439c-0.1366,0.04893 -0.2571,0.13451 -0.3483,0.24738l-2.8619,3.58268l-3.73195,-3.33673c-0.08144,-0.07132 -0.17612,-0.12591 -0.27865,-0.16065l-0.34121,-0.55304l-1.17859,0.00995l0.57152,0.9241c-0.06886,0.12902 -0.09944,0.27502 -0.08814,0.42083l0.32272,4.24093l-5.20059,-0.6682c-0.14014,-0.01456 -0.28161,0.00902 -0.40945,0.06824l-1.56815,-0.60564l0.00711,1.07765l1.12599,0.43361c0.0327,0.12796 0.09668,0.24596 0.19193,0.34548l3.81017,3.85853l-4.22246,2.9671c-0.11989,0.0841 -0.21354,0.2004 -0.27012,0.3355l-0.57437,0.1805l0.00711,1.045l0.86155,-0.2673c0.0853,0.0554 0.17913,0.0953 0.28292,0.1137l0,0.0015z" clip-rule="evenodd" fill-rule="evenodd"/>
  <path id="svg_5" fill="#FFD206" d="m18.046,10.4451c0.1208,0.219 0.3426,0.2389 0.4947,0.037l2.9558,-3.877c0.1237,-0.1635 0.0639,-0.25591 -0.1365,-0.19762l-4.7769,1.31792c-0.2417,0.06824 -0.3086,0.27723 -0.1422,0.46774l1.6065,2.25196l-0.0014,0zm-12.06317,2.1724c-0.00711,-0.2446 -0.17772,-0.3313 -0.38102,-0.1905l-3.8315,2.6401c-0.2033,0.1393 -0.1706,0.29 0.07109,0.3326l4.74849,0.8573c0.24311,0.0427 0.35543,-0.1009 0.25022,-0.3227c0,0 -0.83738,-1.78 -0.84449,-2.8249l-0.01279,-0.4919zm12.02477,1.743c-0.0753,0.2331 0.0526,0.3497 0.2815,0.2601l3.7917,-1.47c0.2303,-0.0896 0.2303,-0.2374 0.0028,-0.3256l-3.5684,-1.4003c-0.2275,-0.091 -0.3725,0.0312 -0.3214,0.2701c0,0 0.1053,0.4862 0.1095,0.9724c0.0071,0.7464 -0.2957,1.6919 -0.2957,1.6919l0,0.0014zm-10.50355,-6.02235c0.11374,-0.2161 0.00711,-0.41513 -0.23743,-0.44073l-4.82242,-0.51181c-0.24453,-0.02559 -0.30424,0.09952 -0.13506,0.27581l3.28982,3.37228c0.17061,0.1763 0.38244,0.1322 0.46775,-0.0967l1.43734,-2.59885zm7.94595,-5.3328c-0.0185,-0.24453 -0.1493,-0.28007 -0.2901,-0.07819l-2.5534,3.62249c-0.1421,0.19904 -0.0568,0.39239 0.1877,0.42793l2.616,0.75351c0.2317,0.0853 0.4051,-0.0455 0.3852,-0.28719l-0.3454,-4.43855zm-7.86349,13.85585c-0.19193,-0.1521 -0.39808,-0.0853 -0.45921,0.1507l-1.03074,3.9851c-0.06113,0.236 0.06113,0.3298 0.27723,0.2075l3.78321,-2.1524c0.2118,-0.1237 0.2104,-0.3199 -0.0043,-0.4365l-2.56619,-1.7544zm3.98219,1.7885c-0.2417,-0.0469 -0.3512,0.0939 -0.2445,0.3128l1.7743,3.6126c0.1094,0.2189 0.2616,0.2104 0.3412,-0.0214l1.3193,-3.8314c0.0796,-0.2332 -0.0512,-0.3697 -0.2886,-0.31c0,0 -1.3847,0.3498 -2.3984,0.2915c-0.3242,-0.0185 -0.5033,-0.0541 -0.5033,-0.0541zm-3.56705,-15.44104c-0.17914,-0.16919 -0.30851,-0.10379 -0.28434,0.1379l0.40518,4.15137c0.02275,0.24453 0.22463,0.36111 0.44784,0.25732l2.67707,-1.03215c0.2403,-0.05829 0.2872,-0.24453 0.108,-0.41087l-3.35518,-3.10357l0.00143,0zm7.87485,14.69614c-0.1891,0.1535 -0.155,0.344 0.0796,0.4236l4.2509,1.4189c0.2331,0.0796 0.327,-0.0284 0.2033,-0.2417l-2.134,-3.7177c-0.1223,-0.2105 -0.3341,-0.2204 -0.4748,-0.0185l-1.925,2.1354z" clip-rule="evenodd" fill-rule="evenodd"/>
  <path id="svg_6" fill="#E8580D" d="m10.9189,25.7628c-0.7251,-1.089 -4.47271,-2.0757 -4.63479,-2.1183c-0.0327,-0.0071 -3.40071,-0.654 -5.37688,-0.6384c-0.29714,0 -0.55163,0.0185 -0.75635,0.0484l0.00711,0.0099l0.03981,5.1992l9.15009,-0.0626l0.75491,-1.0734c0.2118,-0.3227 0.8104,-1.288 0.8161,-1.298l0.0241,-0.0341l-0.0241,-0.0341l0,0.0014z" clip-rule="evenodd" fill-rule="evenodd"/>
  <path id="svg_7" fill="#498070" d="m23.6803,21.7832l-0.1465,0.0284c-0.2701,0.0583 -0.7279,0.1564 -1.389,0.2929c-0.199,0.0242 -4.929,0.6497 -7.1511,1.8255c-3.5557,1.861 -4.4997,3.5585 -4.74,4.2025l-0.0555,0.0626l13.5418,-0.0981l-0.0597,-6.3124l0,-0.0014z" clip-rule="evenodd" fill-rule="evenodd"/>
  <path id="svg_8" fill="white" d="m18.1621,12.8694c0.0256,3.358 -2.7268,6.0991 -6.1446,6.1247c-3.41778,0.0255 -6.21143,-2.6757 -6.2356,-6.0337c-0.02417,-3.3581 2.72541,-6.09914 6.146,-6.12331c3.4178,-0.02559 6.21,2.67422 6.2342,6.03231z" clip-rule="evenodd" fill-rule="evenodd"/>
  <path id="svg_9" fill="#FFD206" d="m7.9345,9.5441l-0.62698,0.8203l-0.26301,0.4877l-0.05118,0.8743l-0.23601,0.3697l0.10237,0.9212l-0.08673,1.0677l0.67105,0.9611l0.19477,0.8814l0.6284,0.6924l1.19423,0.6341l0.85869,0.5075l1.8056,0.3071l1.2852,-0.0071c0.2389,-0.0028 1.2312,-0.3554 1.2312,-0.3554l0.8573,-0.5843l1.1118,-0.8772l0.6866,-1.2924l0.128,-1.3634l-0.0128,-1.3875l-0.3,-1.5696l-0.5246,-0.6184l-1.099,-0.80046l-0.3966,-0.59427l-1.2767,-0.36537l-0.9071,-0.32131l-0.7165,-0.18482l-1.7089,0.34121l-1.25535,0.41656l-0.79047,0.55446l-0.22321,0.38955l-0.28007,0.09525z" clip-rule="evenodd" fill-rule="evenodd"/>
  <path id="svg_10" fill="#498070" d="m42.1765,24.1376l0.0284,3.8457l-12.4712,0.0924l-0.1819,-24.46462l3.5883,-0.02417l0.1536,20.61469l8.8828,-0.064z" clip-rule="evenodd" fill-rule="evenodd"/>
  <g id="svg_11" mask="url(#mask0)">
   <path id="svg_12" fill="#498070" d="m49.242,24.9321c1.0634,-0.0071 1.8709,-0.0825 2.4197,-0.2289l-0.0355,-4.73c-0.2697,-0.0893 -0.5459,-0.1577 -0.826,-0.2047c-0.3949,-0.0714 -0.7958,-0.1042 -1.1971,-0.0981c-0.3796,0 -0.7635,0.0412 -1.1516,0.1137c-0.372,0.0673 -0.7286,0.2022 -1.052,0.3981c-0.3157,0.1948 -0.5738,0.47 -0.7479,0.7975c-0.1876,0.3427 -0.28,0.7734 -0.2758,1.2909c0.0086,1.0123 0.2701,1.7103 0.7848,2.0956c0.5147,0.3839 1.2085,0.573 2.0814,0.5659zm-0.4009,-15.91739c1.1373,-0.00853 2.0984,0.16065 2.8789,0.50755c0.782,0.34831 1.4075,0.83884 1.8767,1.47004c0.4691,0.6312 0.8075,1.4004 1.0122,2.3032c0.2062,0.9056 0.3128,1.9008 0.3242,2.9827l0.081,11.1902c-0.7948,0.2027 -1.5962,0.3791 -2.4027,0.5289c-1.1969,0.2188 -2.4114,0.3283 -3.6282,0.3269c-0.827,0.0153 -1.6521,-0.0857 -2.451,-0.2999c-0.7031,-0.1852 -1.3537,-0.5307 -1.9008,-1.0094c-0.526,-0.4692 -0.9383,-1.0763 -1.2369,-1.8283c-0.3014,-0.7507 -0.4549,-1.6777 -0.462,-2.7837c-0.0086,-1.0606 0.1507,-1.9549 0.4762,-2.6871c0.327,-0.7321 0.7734,-1.3292 1.3407,-1.7927c0.5658,-0.4635 1.2227,-0.7962 1.9705,-1.0037c1.1539,-0.3136 2.3588,-0.3943 3.5443,-0.2375c0.418,0.0569 0.8644,0.1536 1.3407,0.2915l-0.0057,-0.708c-0.0015,-0.4732 -0.0525,-0.9449 -0.1522,-1.4075c-0.0882,-0.4234 -0.2609,-0.8247 -0.5075,-1.18c-0.241,-0.3411 -0.5676,-0.6127 -0.9469,-0.7876c-0.3895,-0.1849 -0.88,-0.2758 -1.4686,-0.273c-0.7358,-0.0005 -1.4696,0.0762 -2.1894,0.2289c-0.6625,0.145 -1.2028,0.3128 -1.6193,0.5047l-0.4521,-3.45758c0.4336,-0.19051 1.0705,-0.38101 1.9051,-0.57863c0.8771,-0.19848 1.7735,-0.29909 2.6728,-0.29998z" clip-rule="evenodd" fill-rule="evenodd"/>
  </g>
  <path id="svg_13" fill="#498070" d="m66.408,27.8099c-1.5019,-3.944 -2.9046,-7.9251 -4.2068,-11.9395c-1.3413,-4.131 -2.6017,-8.2879 -3.7803,-12.46827l3.9609,-0.02986l1.4345,5.03709c0.4876,1.71594 0.9767,3.40074 1.4643,5.05554c0.4877,1.6577 0.9767,3.26 1.4644,4.8096c0.4862,1.5497 0.9639,2.97 1.4288,4.2609c0.4293,-1.298 0.8743,-2.7197 1.3392,-4.2651c0.4635,-1.5426 0.9341,-3.1534 1.4061,-4.8281c0.9521,-3.3728 1.8644,-6.75668 2.7368,-10.15096l3.8443,-0.02844c-1.1371,4.19416 -2.3448,8.3689 -3.6225,12.5223c-1.2353,4.0348 -2.5779,8.0359 -4.0263,11.9992l-3.4434,0.0242l0,0.0014zm15.7994,-0.1166l-3.4447,0.0242l-0.1365,-18.46081l3.4448,-0.02701l0.1364,18.46362zm0.1934,-23.86751c0.0071,0.80042 -0.199,1.43592 -0.6113,1.91219c-0.4152,0.47201 -0.9071,0.71369 -1.4758,0.71796c-0.5886,0.00284 -1.0947,-0.22747 -1.5155,-0.69663c-0.4208,-0.46632 -0.6341,-1.1004 -0.6398,-1.90082c-0.0057,-0.82458 0.1976,-1.47288 0.6114,-1.9463c0.4137,-0.47343 0.9155,-0.7137 1.5055,-0.71796c0.5687,-0.00427 1.0635,0.22747 1.4843,0.69663c0.4208,0.46774 0.6341,1.11319 0.6412,1.93493zm11.3978,12.73271c-0.001,-0.5648 -0.0721,-1.1274 -0.2118,-1.6747c-0.1185,-0.4879 -0.3195,-0.9519 -0.5943,-1.372c-0.2437,-0.371 -0.5672,-0.6828 -0.9469,-0.9127c-0.4031,-0.2286 -0.8618,-0.3408 -1.325,-0.3241c-0.4912,-0.0079 -0.9744,0.1243 -1.3933,0.381c-0.3987,0.2518 -0.7405,0.584 -1.0037,0.9753c-0.2715,0.4066 -0.4834,0.8644 -0.6298,1.3833c-0.148,0.5206 -0.2489,1.0535 -0.3014,1.5923l6.4062,-0.0484zm-9.9804,1.9805c-0.0113,-1.625 0.1735,-3.051 0.5517,-4.2779c0.381,-1.2241 0.8899,-2.2463 1.5297,-3.0638c0.6398,-0.816 1.3762,-1.43449 2.2079,-1.85246c0.792,-0.40677 1.6674,-0.6243 2.5577,-0.63551c2.0501,-0.01421 3.6537,0.76204 4.8153,2.32877c1.1601,1.571 1.7515,3.9182 1.7743,7.0488c0.0028,0.236 0,0.5004 -0.0071,0.7947c-0.0071,0.2957 -0.0199,0.5587 -0.0384,0.7947l-9.824,0.0711c0.1066,1.4814 0.5402,2.6259 1.2937,3.4334c0.7564,0.8047 1.8454,1.2042 3.27,1.1928c0.7728,0.0021 1.5425,-0.0983 2.2889,-0.2985c0.6924,-0.192 1.2369,-0.3981 1.635,-0.6128l0.4805,3.4917c-0.2484,0.1496 -0.5102,0.2757 -0.7819,0.3768c-0.37,0.1448 -0.7489,0.2654 -1.1345,0.3611c-0.4266,0.1094 -0.8858,0.2004 -1.3791,0.2744c-0.4948,0.0753 -0.9952,0.1137 -1.5084,0.1165c-1.3108,0.0114 -2.4511,-0.2232 -3.4221,-0.6966c-0.953,-0.4586 -1.7789,-1.144 -2.4055,-1.9961c-0.6341,-0.8544 -1.1061,-1.8624 -1.4189,-3.0253c-0.3127,-1.163 -0.4734,-2.4383 -0.4848,-3.8244l0,-0.0014zm28.0318,9.4671c-1.481,0.0142 -2.812,-0.2616 -3.992,-0.8175c-1.19,-0.5632 -2.223,-1.4102 -3.008,-2.4667c-0.826,-1.089 -1.462,-2.4183 -1.908,-3.9921c-0.45,-1.5752 -0.681,-3.3851 -0.697,-5.4337c-0.016,-2.0473 0.223,-3.8614 0.714,-5.44087c0.492,-1.57951 1.171,-2.9216 2.034,-4.02199c0.866,-1.1004 1.885,-1.93778 3.057,-2.51073c1.178,-0.57495 2.471,-0.87443 3.782,-0.87576c0.746,-0.01241 1.492,0.05913 2.223,0.21325c0.664,0.14928 1.243,0.3142 1.739,0.50044c0.496,0.18482 0.905,0.38244 1.228,0.59143c0.324,0.20899 0.555,0.35969 0.688,0.45352l-1.028,3.64239c-0.457,-0.34831 -1.11,-0.67957 -1.956,-0.9895c-0.882,-0.31831 -1.814,-0.47343 -2.751,-0.45779c-0.829,0.00054 -1.647,0.19427 -2.388,0.56584c-0.738,0.36964 -1.374,0.91984 -1.91,1.65344c-0.536,0.73502 -0.952,1.65483 -1.247,2.76383c-0.295,1.1089 -0.437,2.3927 -0.427,3.8513c0.009,1.2938 0.137,2.4823 0.381,3.5614c0.247,1.0833 0.618,2.0145 1.118,2.7993c0.499,0.7848 1.131,1.3933 1.893,1.8226c0.763,0.4294 1.674,0.6398 2.739,0.6327c1.27,-0.0099 2.303,-0.1777 3.1,-0.5004c0.794,-0.3242 1.409,-0.627 1.844,-0.9128l0.995,3.6282c-0.284,0.2266 -0.593,0.4189 -0.921,0.573c-1.002,0.484 -2.069,0.8193 -3.168,0.9951c-0.706,0.1138 -1.419,0.1713 -2.134,0.1721zm13.095,-0.2702c-1.023,-0.0184 -1.876,-0.1521 -2.55,-0.4051c-0.677,-0.2559 -1.216,-0.6227 -1.618,-1.1019c-0.402,-0.4776 -0.687,-1.0762 -0.853,-1.7941c-0.177,-0.8049 -0.264,-1.627 -0.259,-2.4511l-0.158,-21.25152l3.441,-0.73218l0.153,21.1464c0.006,0.5189 0.042,0.9539 0.111,1.3065c0.069,0.3512 0.189,0.6511 0.361,0.8957c0.172,0.2474 0.408,0.435 0.703,0.5601c0.295,0.128 0.671,0.2261 1.127,0.2929l-0.458,3.5343zm7.749,-3.412c1.062,-0.0071 1.868,-0.0839 2.416,-0.2289l-0.032,-4.7314c-0.271,-0.0881 -0.548,-0.1565 -0.829,-0.2048c-0.395,-0.0708 -0.795,-0.1032 -1.196,-0.0966c-0.387,0.0032 -0.772,0.0408 -1.153,0.1123c-0.388,0.0753 -0.739,0.2061 -1.052,0.398c-0.315,0.196 -0.572,0.4723 -0.745,0.8005c-0.189,0.3412 -0.281,0.7719 -0.277,1.288c0.007,1.0137 0.27,1.7118 0.785,2.0956c0.514,0.3839 1.208,0.5744 2.083,0.5687l0,-0.0014zm-0.403,-15.92023c1.138,-0.00711 2.099,0.1635 2.879,0.50897c0.782,0.34831 1.408,0.8388 1.877,1.47006c0.469,0.6326 0.807,1.3989 1.012,2.3046c0.206,0.9056 0.313,1.8979 0.323,2.9813l0.084,11.1887c-0.795,0.204 -1.596,0.3814 -2.403,0.5318c-1.072,0.2047 -2.283,0.3156 -3.628,0.3255c-0.828,0.0157 -1.653,-0.0848 -2.453,-0.2985c-0.703,-0.1864 -1.353,-0.5328 -1.9,-1.0123c-0.526,-0.4663 -0.937,-1.0748 -1.237,-1.8269c-0.302,-0.7506 -0.455,-1.679 -0.462,-2.7837c-0.007,-1.0605 0.152,-1.9548 0.477,-2.687c0.327,-0.7321 0.774,-1.3307 1.34,-1.7942c0.565,-0.462 1.224,-0.7961 1.97,-1.0023c1.154,-0.3133 2.358,-0.394 3.543,-0.2374c0.419,0.0569 0.867,0.1521 1.343,0.2929l-0.007,-0.708c-0.001,-0.4746 -0.052,-0.9478 -0.152,-1.4118c-0.088,-0.4235 -0.26,-0.8249 -0.507,-1.18c-0.241,-0.3398 -0.567,-0.6104 -0.946,-0.7848c-0.389,-0.1876 -0.881,-0.2786 -1.468,-0.2729c-0.736,-0.0013 -1.47,0.0749 -2.19,0.2275c-0.665,0.1464 -1.204,0.3141 -1.621,0.5061l-0.453,-3.45618c0.436,-0.1905 1.07,-0.38386 1.905,-0.57863c0.877,-0.1993 1.773,-0.30086 2.673,-0.30282l0.001,0zm11.984,18.83753l-3.445,0.0256l-0.136,-18.46363l3.444,-0.02417l0.137,18.4622zm0.193,-23.86751c0.007,0.80184 -0.199,1.43876 -0.611,1.91219c-0.415,0.47343 -0.906,0.71369 -1.476,0.71654c-0.588,0.00426 -1.093,-0.22747 -1.515,-0.69664c-0.42,-0.46631 -0.635,-1.10039 -0.64,-1.89939c-0.006,-0.82458 0.197,-1.47146 0.613,-1.9463c0.413,-0.47485 0.914,-0.71228 1.504,-0.71796c0.568,-0.00427 1.063,0.22747 1.484,0.69663c0.422,0.46632 0.635,1.11319 0.641,1.93493zm10.69,9.17281c-0.386,-0.1476 -0.783,-0.2682 -1.186,-0.3611c-0.574,-0.1342 -1.163,-0.1953 -1.753,-0.182c-0.407,0.0055 -0.812,0.0555 -1.208,0.1493c-0.427,0.0981 -0.724,0.182 -0.894,0.2559l0.109,14.7885l-3.445,0.027l-0.132,-17.58071c0.664,-0.31135 1.493,-0.60564 2.487,-0.88287c1.08,-0.28949 2.194,-0.43435 3.312,-0.43078c0.229,0 0.495,0.0128 0.799,0.04692c0.607,0.06455 1.207,0.1777 1.796,0.33836c0.284,0.08104 0.514,0.15639 0.684,0.22605l-0.569,3.60543zm10.303,3.4903c-0.001,-0.5648 -0.072,-1.1273 -0.21,-1.6748c-0.119,-0.4878 -0.321,-0.9518 -0.596,-1.3719c-0.242,-0.371 -0.565,-0.683 -0.944,-0.9128c-0.404,-0.2286 -0.864,-0.3408 -1.328,-0.3241c-0.53,0.0028 -0.995,0.1308 -1.393,0.381c-0.398,0.2518 -0.739,0.584 -1.001,0.9753c-0.273,0.4052 -0.483,0.8644 -0.631,1.3819c-0.149,0.5205 -0.25,1.0535 -0.303,1.5923l6.406,-0.0469zm-9.979,1.979c-0.013,-1.6236 0.171,-3.0496 0.55,-4.2765c0.381,-1.2255 0.893,-2.2463 1.531,-3.0638c0.64,-0.81885 1.375,-1.43445 2.207,-1.85243c0.791,-0.40804 1.667,-0.62565 2.558,-0.6355c2.051,-0.01422 3.655,0.76203 4.815,2.32873c1.16,1.571 1.751,3.9182 1.777,7.0488c0,0.236 -0.003,0.5004 -0.01,0.7947c-0.007,0.2957 -0.02,0.5588 -0.037,0.7948l-9.824,0.0711c0.107,1.4814 0.538,2.6258 1.294,3.4334c0.755,0.8046 1.845,1.2041 3.268,1.1928c0.773,0.0021 1.543,-0.0983 2.289,-0.2986c0.693,-0.1919 1.237,-0.3981 1.635,-0.6127l0.481,3.4916c-0.249,0.149 -0.511,0.2751 -0.782,0.3768c-0.37,0.1442 -0.749,0.2644 -1.135,0.3597c-0.426,0.1109 -0.885,0.2019 -1.379,0.2758c-0.494,0.0739 -0.995,0.1137 -1.507,0.1166c-1.312,0.0114 -2.452,-0.2232 -3.422,-0.6967c-0.953,-0.4588 -1.779,-1.1441 -2.407,-1.996c-0.634,-0.8545 -1.106,-1.8624 -1.419,-3.0254c-0.323,-1.2499 -0.486,-2.5361 -0.483,-3.8272z" clip-rule="evenodd" fill-rule="evenodd"/>
  <text font-style="normal" font-weight="normal" xml:space="preserve" text-anchor="start" font-family="'Rounded Mplus 1c Medium'" font-size="24" id="svg_14" y="52" x="28" stroke-width="0" fill="#498070">Beauvais</text>
 </g>
</svg>